<svg width="1440" height="1024" viewBox="0 0 1440 1024" fill="none" xmlns="http://www.w3.org/2000/svg">
<g clip-path="url(#clip0)">
<rect width="1440" height="1024" fill="#27303C"/>
<rect x="276.122" y="0.935547" width="112" height="652.992" rx="50" transform="rotate(41.8417 276.122 0.935547)" fill="#B40055"/>
<rect x="276.122" y="0.935547" width="112" height="652.992" rx="50" transform="rotate(41.8417 276.122 0.935547)" fill="url(#paint0_linear)"/>
<rect x="218.362" y="411" width="156.725" height="778.565" rx="78.3623" transform="rotate(41.8417 218.362 411)" fill="#B40055"/>
<rect x="218.362" y="411" width="156.725" height="778.565" rx="78.3623" transform="rotate(41.8417 218.362 411)" fill="url(#paint1_linear)"/>
<rect x="200.362" y="709" width="74.2246" height="778.565" rx="37.1123" transform="rotate(41.8417 200.362 709)" fill="#B40055"/>
<rect x="200.362" y="709" width="74.2246" height="778.565" rx="37.1123" transform="rotate(41.8417 200.362 709)" fill="url(#paint2_linear)"/>
<rect x="1194.4" y="398.83" width="169.595" height="778.566" rx="84.7973" transform="rotate(-136.686 1194.4 398.83)" fill="#B40055"/>
<rect x="1194.4" y="398.83" width="169.595" height="778.566" rx="84.7973" transform="rotate(-136.686 1194.4 398.83)" fill="url(#paint3_linear)"/>
<rect x="1279.94" y="1137.19" width="294.029" height="778.566" rx="147.015" transform="rotate(-136.686 1279.94 1137.19)" fill="#B40055"/>
<rect x="1279.94" y="1137.19" width="294.029" height="778.566" rx="147.015" transform="rotate(-136.686 1279.94 1137.19)" fill="url(#paint4_linear)"/>
<rect x="1155.53" y="139.937" width="68.0705" height="320.56" rx="34.0353" transform="rotate(-136.686 1155.53 139.937)" fill="#B40055"/>
<rect x="1155.53" y="139.937" width="68.0705" height="320.56" rx="34.0353" transform="rotate(-136.686 1155.53 139.937)" fill="url(#paint5_linear)"/>
<circle cx="402.5" cy="215.5" r="15.5" fill="#B40055"/>
<circle cx="1123.5" cy="754.5" r="41.5" fill="#B40055"/>
<circle cx="204.5" cy="905.5" r="29.5" fill="#B40055"/>
</g>
<defs>
<linearGradient id="paint0_linear" x1="332.122" y1="0.935547" x2="332.122" y2="653.928" gradientUnits="userSpaceOnUse">
<stop stop-color="#B40055"/>
<stop offset="0.732716" stop-color="#302D3E"/>
<stop offset="1" stop-color="#27303C"/>
</linearGradient>
<linearGradient id="paint1_linear" x1="296.724" y1="411" x2="296.724" y2="1189.57" gradientUnits="userSpaceOnUse">
<stop stop-color="#B40055"/>
<stop offset="0.732716" stop-color="#302D3E"/>
<stop offset="1" stop-color="#27303C"/>
</linearGradient>
<linearGradient id="paint2_linear" x1="237.474" y1="709" x2="237.474" y2="1487.57" gradientUnits="userSpaceOnUse">
<stop stop-color="#B40055"/>
<stop offset="0.388815" stop-color="#302D3E"/>
<stop offset="1" stop-color="#27303C"/>
</linearGradient>
<linearGradient id="paint3_linear" x1="1279.2" y1="398.83" x2="1279.2" y2="1177.4" gradientUnits="userSpaceOnUse">
<stop stop-color="#B40055"/>
<stop offset="0.388815" stop-color="#302D3E"/>
<stop offset="1" stop-color="#27303C"/>
</linearGradient>
<linearGradient id="paint4_linear" x1="1426.95" y1="1137.19" x2="1426.95" y2="1915.76" gradientUnits="userSpaceOnUse">
<stop stop-color="#B40055"/>
<stop offset="0.388815" stop-color="#302D3E"/>
<stop offset="1" stop-color="#27303C"/>
</linearGradient>
<linearGradient id="paint5_linear" x1="1189.56" y1="139.937" x2="1189.56" y2="460.497" gradientUnits="userSpaceOnUse">
<stop stop-color="#B40055"/>
<stop offset="0.388815" stop-color="#302D3E"/>
<stop offset="1" stop-color="#27303C"/>
</linearGradient>
<clipPath id="clip0">
<rect width="1440" height="1024" fill="white"/>
</clipPath>
</defs>
</svg>
